<svg xmlns="http://www.w3.org/2000/svg" xmlns:xlink="http://www.w3.org/1999/xlink" width="2000" zoomAndPan="magnify" viewBox="0 0 1500 1499.999933" height="2000" preserveAspectRatio="xMidYMid meet" version="1.0"><defs><g/><clipPath id="922ee3711a"><path d="M 0.414062 588.644531 L 559.625 588.644531 L 559.625 1147.859375 L 0.414062 1147.859375 Z M 0.414062 588.644531 " clip-rule="nonzero"/></clipPath><clipPath id="c953f8dc31"><path d="M 0.414062 868.277344 C 0.414062 1022.691406 125.582031 1147.859375 279.992188 1147.859375 C 434.40625 1147.859375 559.574219 1022.691406 559.574219 868.277344 L 559.574219 588.695312 L 279.992188 588.695312 C 125.582031 588.644531 0.414062 713.863281 0.414062 868.277344 Z M 0.414062 868.277344 " clip-rule="nonzero"/></clipPath><clipPath id="ecb9bd2dcc"><path d="M 0.414062 0.644531 L 559.601562 0.644531 L 559.601562 559.859375 L 0.414062 559.859375 Z M 0.414062 0.644531 " clip-rule="nonzero"/></clipPath><clipPath id="8197beff4a"><path d="M 0.414062 280.277344 C 0.414062 434.691406 125.582031 559.859375 279.992188 559.859375 C 434.40625 559.859375 559.574219 434.691406 559.574219 280.277344 L 559.574219 0.695312 L 279.992188 0.695312 C 125.582031 0.644531 0.414062 125.863281 0.414062 280.277344 Z M 0.414062 280.277344 " clip-rule="nonzero"/></clipPath><clipPath id="2282670579"><rect x="0" width="560" y="0" height="560"/></clipPath><clipPath id="35b41a9cea"><path d="M 588.371094 0.6875 L 1147.585938 0.6875 L 1147.585938 559.898438 L 588.371094 559.898438 Z M 588.371094 0.6875 " clip-rule="nonzero"/></clipPath><clipPath id="4e54a3d1a2"><path d="M 1147.585938 280.269531 C 1147.585938 125.855469 1022.417969 0.6875 868.003906 0.6875 C 713.589844 0.6875 588.421875 125.855469 588.421875 280.269531 L 588.421875 559.847656 L 868.003906 559.847656 C 1022.417969 559.898438 1147.585938 434.679688 1147.585938 280.269531 Z M 1147.585938 280.269531 " clip-rule="nonzero"/></clipPath><clipPath id="8024ac5630"><path d="M 0.398438 0.6875 L 559.585938 0.6875 L 559.585938 559.898438 L 0.398438 559.898438 Z M 0.398438 0.6875 " clip-rule="nonzero"/></clipPath><clipPath id="4a16c37395"><path d="M 559.585938 280.269531 C 559.585938 125.855469 434.417969 0.6875 280.003906 0.6875 C 125.589844 0.6875 0.421875 125.855469 0.421875 280.269531 L 0.421875 559.847656 L 280.003906 559.847656 C 434.417969 559.898438 559.585938 434.679688 559.585938 280.269531 Z M 559.585938 280.269531 " clip-rule="nonzero"/></clipPath><clipPath id="106c80da74"><rect x="0" width="560" y="0" height="560"/></clipPath><clipPath id="bb648cf267"><path d="M 0.414062 0.6875 L 559.625 0.6875 L 559.625 559.898438 L 0.414062 559.898438 Z M 0.414062 0.6875 " clip-rule="nonzero"/></clipPath><clipPath id="987869a771"><path d="M 279.992188 0.6875 C 125.582031 0.6875 0.414062 125.855469 0.414062 280.269531 C 0.414062 434.679688 125.582031 559.847656 279.992188 559.847656 L 559.574219 559.847656 L 559.574219 280.269531 C 559.625 125.855469 434.40625 0.6875 279.992188 0.6875 Z M 279.992188 0.6875 " clip-rule="nonzero"/></clipPath><clipPath id="57eb8831d1"><path d="M 0.414062 0.6875 L 559.625 0.6875 L 559.625 559.898438 L 0.414062 559.898438 Z M 0.414062 0.6875 " clip-rule="nonzero"/></clipPath><clipPath id="cfe403f526"><path d="M 279.992188 0.6875 C 125.582031 0.6875 0.414062 125.855469 0.414062 280.269531 C 0.414062 434.679688 125.582031 559.847656 279.992188 559.847656 L 559.574219 559.847656 L 559.574219 280.269531 C 559.625 125.855469 434.40625 0.6875 279.992188 0.6875 Z M 279.992188 0.6875 " clip-rule="nonzero"/></clipPath><clipPath id="fa5e86217c"><rect x="0" width="560" y="0" height="560"/></clipPath><clipPath id="b937997f06"><path d="M 588.371094 588.644531 L 1147.585938 588.644531 L 1147.585938 1147.859375 L 588.371094 1147.859375 Z M 588.371094 588.644531 " clip-rule="nonzero"/></clipPath><clipPath id="eb4a277143"><path d="M 868.003906 1147.859375 C 1022.417969 1147.859375 1147.585938 1022.691406 1147.585938 868.277344 C 1147.585938 713.863281 1022.417969 588.695312 868.003906 588.695312 L 588.421875 588.695312 L 588.421875 868.277344 C 588.371094 1022.691406 713.589844 1147.859375 868.003906 1147.859375 Z M 868.003906 1147.859375 " clip-rule="nonzero"/></clipPath><clipPath id="cd0ae05ba9"><path d="M 0.371094 0.644531 L 559.585938 0.644531 L 559.585938 559.859375 L 0.371094 559.859375 Z M 0.371094 0.644531 " clip-rule="nonzero"/></clipPath><clipPath id="10615f8388"><path d="M 280.003906 559.859375 C 434.417969 559.859375 559.585938 434.691406 559.585938 280.277344 C 559.585938 125.863281 434.417969 0.695312 280.003906 0.695312 L 0.421875 0.695312 L 0.421875 280.277344 C 0.371094 434.691406 125.589844 559.859375 280.003906 559.859375 Z M 280.003906 559.859375 " clip-rule="nonzero"/></clipPath><clipPath id="47e28a2e00"><rect x="0" width="560" y="0" height="560"/></clipPath><clipPath id="05a3e12555"><path d="M 415 416 L 733 416 L 733 733 L 415 733 Z M 415 416 " clip-rule="nonzero"/></clipPath><clipPath id="6f3f705c8d"><path d="M 350.445312 574.265625 L 574.003906 350.710938 L 797.558594 574.265625 L 574.003906 797.824219 Z M 350.445312 574.265625 " clip-rule="nonzero"/></clipPath><clipPath id="1924e338bd"><path d="M 462.226562 462.488281 C 400.492188 524.222656 400.492188 624.3125 462.226562 686.042969 C 523.957031 747.777344 624.046875 747.777344 685.78125 686.042969 C 747.515625 624.3125 747.515625 524.222656 685.78125 462.488281 C 624.046875 400.757812 523.957031 400.757812 462.226562 462.488281 Z M 462.226562 462.488281 " clip-rule="nonzero"/></clipPath><clipPath id="236f379afe"><path d="M 0 0 L 318 0 L 318 317 L 0 317 Z M 0 0 " clip-rule="nonzero"/></clipPath><clipPath id="20e0b01982"><path d="M -64.554688 158.265625 L 159.003906 -65.289062 L 382.558594 158.265625 L 159.003906 381.824219 Z M -64.554688 158.265625 " clip-rule="nonzero"/></clipPath><clipPath id="4943b08664"><path d="M 47.226562 46.488281 C -14.507812 108.222656 -14.507812 208.3125 47.226562 270.042969 C 108.957031 331.777344 209.046875 331.777344 270.78125 270.042969 C 332.515625 208.3125 332.515625 108.222656 270.78125 46.488281 C 209.046875 -15.242188 108.957031 -15.242188 47.226562 46.488281 Z M 47.226562 46.488281 " clip-rule="nonzero"/></clipPath><clipPath id="6705352293"><rect x="0" width="318" y="0" height="317"/></clipPath><clipPath id="e87c467f85"><rect x="0" width="1148" y="0" height="1148"/></clipPath></defs><rect x="-150" width="1800" fill="#ffffff" y="-149.999993" height="1799.99992" fill-opacity="1"/><rect x="-150" width="1800" fill="#f5f7f8" y="-149.999993" height="1799.99992" fill-opacity="1"/><g transform="matrix(1, 0, 0, 1, 176, 82)"><g clip-path="url(#e87c467f85)"><g clip-path="url(#922ee3711a)"><g clip-path="url(#c953f8dc31)"><g transform="matrix(1, 0, 0, 1, 0, 588)"><g clip-path="url(#2282670579)"><g clip-path="url(#ecb9bd2dcc)"><g clip-path="url(#8197beff4a)"><path fill="#80c432" d="M 0.414062 559.859375 L 0.414062 0.644531 L 559.625 0.644531 L 559.625 559.859375 Z M 0.414062 559.859375 " fill-opacity="1" fill-rule="nonzero"/></g></g></g></g></g></g><g clip-path="url(#35b41a9cea)"><g clip-path="url(#4e54a3d1a2)"><g transform="matrix(1, 0, 0, 1, 588, 0.000000000000113687)"><g clip-path="url(#106c80da74)"><g clip-path="url(#8024ac5630)"><g clip-path="url(#4a16c37395)"><path fill="#80c432" d="M 559.585938 0.6875 L 559.585938 559.898438 L 0.371094 559.898438 L 0.371094 0.6875 Z M 559.585938 0.6875 " fill-opacity="1" fill-rule="nonzero"/></g></g></g></g></g></g><g clip-path="url(#bb648cf267)"><g clip-path="url(#987869a771)"><g transform="matrix(1, 0, 0, 1, 0, 0.000000000000113687)"><g clip-path="url(#fa5e86217c)"><g clip-path="url(#57eb8831d1)"><g clip-path="url(#cfe403f526)"><path fill="#80c432" d="M 0.414062 0.6875 L 559.625 0.6875 L 559.625 559.898438 L 0.414062 559.898438 Z M 0.414062 0.6875 " fill-opacity="1" fill-rule="nonzero"/></g></g></g></g></g></g><g clip-path="url(#b937997f06)"><g clip-path="url(#eb4a277143)"><g transform="matrix(1, 0, 0, 1, 588, 588)"><g clip-path="url(#47e28a2e00)"><g clip-path="url(#cd0ae05ba9)"><g clip-path="url(#10615f8388)"><path fill="#80c432" d="M 559.585938 559.859375 L 0.371094 559.859375 L 0.371094 0.644531 L 559.585938 0.644531 Z M 559.585938 559.859375 " fill-opacity="1" fill-rule="nonzero"/></g></g></g></g></g></g><g clip-path="url(#05a3e12555)"><g clip-path="url(#6f3f705c8d)"><g clip-path="url(#1924e338bd)"><g transform="matrix(1, 0, 0, 1, 415, 416)"><g clip-path="url(#6705352293)"><g clip-path="url(#236f379afe)"><g clip-path="url(#20e0b01982)"><g clip-path="url(#4943b08664)"><path fill="#80c432" d="M -64.554688 158.265625 L 159.003906 -65.289062 L 382.558594 158.265625 L 159.003906 381.824219 Z M -64.554688 158.265625 " fill-opacity="1" fill-rule="nonzero"/></g></g></g></g></g></g></g></g></g></g><g fill="#1a7616" fill-opacity="1"><g transform="translate(246.689457, 1419.374738)"><g><path d="M 13.203125 0 L 13.203125 -170.875 L 83.515625 -170.875 C 113.117188 -170.875 135.921875 -163.515625 151.921875 -148.796875 C 167.921875 -134.078125 175.921875 -112.957031 175.921875 -85.4375 C 175.921875 -57.914062 167.921875 -36.796875 151.921875 -22.078125 C 135.921875 -7.359375 113.117188 0 83.515625 0 Z M 53.046875 -32.875 L 83.515625 -32.875 C 99.992188 -32.875 112.671875 -37.394531 121.546875 -46.4375 C 130.429688 -55.476562 134.875 -68.476562 134.875 -85.4375 C 134.875 -102.5625 130.429688 -115.640625 121.546875 -124.671875 C 112.671875 -133.710938 99.992188 -138.234375 83.515625 -138.234375 L 53.046875 -138.234375 Z M 53.046875 -32.875 "/></g></g></g><g fill="#1a7616" fill-opacity="1"><g transform="translate(429.809156, 1419.374738)"><g><path d="M 1.203125 0 L 63.125 -170.875 L 113.28125 -170.875 L 174.953125 0 L 132 0 L 120.953125 -33.59375 L 55.203125 -33.59375 L 44.15625 0 Z M 62.640625 -62.640625 L 113.515625 -62.640625 L 88.3125 -138.484375 L 87.84375 -138.484375 Z M 62.640625 -62.640625 "/></g></g></g><g fill="#1a7616" fill-opacity="1"><g transform="translate(974.666675, 1419.374738)"><g><path d="M 13.203125 0 L 13.203125 -170.875 L 54.234375 -170.875 L 54.234375 0 Z M 13.203125 0 "/></g></g></g><g fill="#1a7616" fill-opacity="1"><g transform="translate(1042.10653, 1419.374738)"><g><path d="M 13.203125 0 L 13.203125 -170.875 L 61.203125 -170.875 L 130.796875 -49.203125 L 131.28125 -49.203125 L 131.28125 -170.875 L 170.15625 -170.875 L 170.15625 0 L 121.921875 0 L 52.3125 -121.4375 L 51.84375 -121.4375 L 51.84375 0 Z M 13.203125 0 "/></g></g></g><g fill="#1a7616" fill-opacity="1"><g transform="translate(612.077318, 1417.874858)"><g><path d="M 15.703125 0 L 15.703125 -203.203125 L 119.296875 -203.203125 C 141.929688 -203.203125 159.382812 -198.394531 171.65625 -188.78125 C 183.925781 -179.175781 190.0625 -165.523438 190.0625 -147.828125 C 190.0625 -136.609375 187.113281 -127.238281 181.21875 -119.71875 C 175.320312 -112.207031 166.859375 -107.023438 155.828125 -104.171875 L 155.828125 -103.875 C 168.191406 -101.40625 177.75 -96.125 184.5 -88.03125 C 191.257812 -79.945312 194.640625 -69.4375 194.640625 -56.5 C 194.640625 -38.625 188.3125 -24.738281 175.65625 -14.84375 C 163 -4.945312 145.066406 0 121.859375 0 Z M 64.5 -119.015625 L 111.59375 -119.015625 C 121.101562 -119.015625 128.472656 -121.148438 133.703125 -125.421875 C 138.929688 -129.703125 141.546875 -135.742188 141.546875 -143.546875 C 141.546875 -150.972656 138.929688 -156.773438 133.703125 -160.953125 C 128.472656 -165.140625 121.101562 -167.234375 111.59375 -167.234375 L 64.5 -167.234375 Z M 64.5 -36.25 L 113.015625 -36.25 C 123.671875 -36.25 131.851562 -38.4375 137.5625 -42.8125 C 143.269531 -47.1875 146.125 -53.367188 146.125 -61.359375 C 146.125 -69.921875 143.269531 -76.484375 137.5625 -81.046875 C 131.851562 -85.617188 123.671875 -87.90625 113.015625 -87.90625 L 64.5 -87.90625 Z M 64.5 -36.25 "/></g></g></g><g fill="#1a7616" fill-opacity="1"><g transform="translate(813.847693, 1417.874858)"><g><path d="M 15.703125 0 L 15.703125 -203.203125 L 64.5 -203.203125 L 64.5 -41.953125 L 148.96875 -41.953125 L 148.96875 0 Z M 15.703125 0 "/></g></g></g></svg>